<svg xmlns="http://www.w3.org/2000/svg" width="19.54" height="19.988" viewBox="0 0 19.54 19.988">
  <g id="box" transform="translate(-2.23 -2.004)">
    <path id="Path_9" data-name="Path 9" d="M20.208,7.821l-7.7,4.46a1.031,1.031,0,0,1-1.02,0l-7.7-4.46a1.014,1.014,0,0,1-.27-1.54,3.587,3.587,0,0,1,.97-.79l5.42-3a4.767,4.767,0,0,1,4.2,0l5.42,3a3.786,3.786,0,0,1,.97.79A1.032,1.032,0,0,1,20.208,7.821Z" fill="#292d32"/>
    <path id="Path_10" data-name="Path 10" d="M11.431,14.139v6.82a1.011,1.011,0,0,1-1.45.93c-2.06-1.01-5.53-2.9-5.53-2.9a4.9,4.9,0,0,1-2.22-3.86V9.969a1.012,1.012,0,0,1,1.51-.9l7.19,4.17A1.076,1.076,0,0,1,11.431,14.139Z" fill="#292d32"/>
    <path id="Path_11" data-name="Path 11" d="M12.57,14.139v6.82a1.011,1.011,0,0,0,1.45.93c2.06-1.01,5.53-2.9,5.53-2.9a4.9,4.9,0,0,0,2.22-3.86V9.969a1.012,1.012,0,0,0-1.51-.9l-7.19,4.17A1.076,1.076,0,0,0,12.57,14.139Z" fill="#292d32"/>
  </g>
</svg>
