<svg xmlns="http://www.w3.org/2000/svg" width="18" height="20" viewBox="0 0 18 20">
  <path id="trash" d="M10,12l4,4m0-4-4,4M4,6H20M16,6l-.271-.812a4.586,4.586,0,0,0-.637-1.471,2,2,0,0,0-.8-.578A4.584,4.584,0,0,0,12.694,3H11.306a4.584,4.584,0,0,0-1.6.139,2,2,0,0,0-.8.578,4.584,4.584,0,0,0-.637,1.471L8,6M18,6V16.2a7.453,7.453,0,0,1-.327,3.162,3,3,0,0,1-1.311,1.311A7.453,7.453,0,0,1,13.2,21H10.8a7.453,7.453,0,0,1-3.162-.327,3,3,0,0,1-1.311-1.311A7.453,7.453,0,0,1,6,16.2V6" transform="translate(-3 -2)" fill="none" stroke="#ff7070" stroke-linecap="round" stroke-linejoin="round" stroke-width="2"/>
</svg>
