<svg xmlns="http://www.w3.org/2000/svg" width="20" height="14" viewBox="0 0 20 14">
  <path id="videoIcon" d="M16,10l2.577-1.546c.793-.476,1.19-.714,1.516-.683a1,1,0,0,1,.713.4C21,8.438,21,8.9,21,9.826v4.348c0,.925,0,1.387-.194,1.652a1,1,0,0,1-.713.4c-.326.03-.723-.208-1.516-.683L16,14M6.2,18h6.6a4.968,4.968,0,0,0,2.108-.218,2,2,0,0,0,.874-.874A4.968,4.968,0,0,0,16,14.8V9.2a4.968,4.968,0,0,0-.218-2.108,2,2,0,0,0-.874-.874A4.969,4.969,0,0,0,12.8,6H6.2a4.969,4.969,0,0,0-2.108.218,2,2,0,0,0-.874.874A4.969,4.969,0,0,0,3,9.2v5.6a4.969,4.969,0,0,0,.218,2.108,2,2,0,0,0,.874.874A4.968,4.968,0,0,0,6.2,18Z" transform="translate(-2 -5)" fill="none" stroke="#90e49e" stroke-linecap="round" stroke-linejoin="round" stroke-width="2"/>
</svg>
